<svg xmlns:dc="http://purl.org/dc/elements/1.1/" xmlns:cc="http://creativecommons.org/ns#" xmlns:rdf="http://www.w3.org/1999/02/22-rdf-syntax-ns#" xmlns:svg="http://www.w3.org/2000/svg" xmlns="http://www.w3.org/2000/svg" xmlns:sodipodi="http://sodipodi.sourceforge.net/DTD/sodipodi-0.dtd" xmlns:inkscape="http://www.inkscape.org/namespaces/inkscape" version="1.1" x="0px" y="0px" viewBox="0 0 100 125"><g transform="translate(0,-952.36218)"><path d="m 9.999999,973.36222 c 0,0 -2,1 -2,2 l 0,31.06248 55,0 0,-20.06248 0,-11 c 0,-1 -0.9983,-2.0084 -2,-2 z m 55,13 0,19.99998 c -1e-4,1.0472 -0.9528,1.9999 -2,2 l -55,0 c 0,4.1206 0,7.7056 0,12.9687 l 6.2188,0 c 0.9482,-4.5306 4.98,-7.9687 9.7812,-7.9687 4.8012,0 8.833,3.4381 9.7813,7.9687 10.5616,0.011 20.9381,0.031 32.4375,0.031 0.9367,-4.5455 4.9694,-8 9.7812,-8 4.8012,0 8.833,3.4381 9.7813,7.9687 1.9596,0 3.658302,0.01 6.218702,0 l 0,-17.9687 -12.000002,-16.99998 z m 4.8125,3 c 3.0625,0 4.125,0 7.1875,0 0.6498,-8e-4 1.2907,0.3378 1.6563,0.875 l 8,11.99998 c 0.4066,0.598 0.4636,1.4235 0.125,2.0625 -0.3387,0.6389 -1.0582,1.0633 -1.7813,1.0625 l -15,0 c -1.0472,-10e-5 -1.9999,-0.9528 -2,-2 l 0,-11.99998 c 0,-0.9875 0.8293,-1.9073 1.8125,-2 z m -45.8125,25.99998 c -4.4183,0 -8,3.5817 -8,8 0,4.4183 3.5817,8 8,8 4.4183,0 8,-3.5817 8,-8 0,-4.4183 -3.5817,-8 -8,-8 z m 52,0 c -4.4183,0 -8,3.5817 -8,8 0,4.4183 3.5817,8 8,8 4.4183,0 8,-3.5817 8,-8 0,-4.4183 -3.5817,-8 -8,-8 z" style="color:#000000;enable-background:accumulate;" fill="#000000" stroke="none" marker="none" visibility="visible" display="inline" overflow="visible"/></g><text x="0" y="115" fill="#000000" font-size="5px" font-weight="bold" font-family="'Helvetica Neue', Helvetica, Arial-Unicode, Arial, Sans-serif">Created by art shop</text><text x="0" y="120" fill="#000000" font-size="5px" font-weight="bold" font-family="'Helvetica Neue', Helvetica, Arial-Unicode, Arial, Sans-serif">from the Noun Project</text></svg>